<?xml version="1.0" standalone="no"?><!DOCTYPE svg PUBLIC "-//W3C//DTD SVG 1.1//EN" "http://www.w3.org/Graphics/SVG/1.1/DTD/svg11.dtd"><svg t="1646827440187" class="icon" viewBox="0 0 1536 1024" version="1.1" xmlns="http://www.w3.org/2000/svg" p-id="3640" width="18" height="12" xmlns:xlink="http://www.w3.org/1999/xlink"><defs><style type="text/css"></style></defs><path d="M22.784 888.704V141.376C26.56 78.72 59.2 46.08 121.856 42.336h223.2c300.928 10.016 456.416 171.776 466.432 482.752-13.792 293.408-165.504 447.616-456.416 461.44H126.88C60.416 983.936 26.56 950.112 22.784 888.672zM219.648 224.16v580.544h135.424c159.232-7.552 242.016-101.568 249.536-285.888-3.776-191.84-92.8-290.88-265.824-294.656H219.648z" fill="#0281FF" p-id="3641"></path><path d="M894.24 721.92V379.616c3.776-68.96 36.352-105.312 99.072-109.088 58.912 3.776 90.24 40.128 92.8 109.12V721.92c3.744 72.736 45.12 112.864 124.096 119.136 79.008-7.52 121.632-46.4 124.16-119.136V379.616c3.744-68.96 35.104-105.312 92.8-109.088 62.656 3.776 95.264 40.128 99.04 109.12V721.92c-7.52 176.8-112.864 265.824-316 269.6-203.104-2.496-308.448-92.8-315.968-269.6z" fill="#002549" p-id="3642"></path></svg>